<svg width="56" height="56" viewBox="0 0 56 56" fill="none" xmlns="http://www.w3.org/2000/svg">
<rect x="2.80078" y="2.80078" width="50.4" height="50.4" rx="25.2" fill="#545E8B"/>
<path d="M43.3984 25.1992L46.1984 27.9992L43.3984 30.7992" stroke="white" stroke-width="2.8" stroke-linecap="round" stroke-linejoin="round"/>
<path d="M12.6016 30.8008L9.80156 28.0008L12.6016 25.2008" stroke="white" stroke-width="2.8" stroke-linecap="round" stroke-linejoin="round"/>
<path d="M25.1992 12.6016L27.9992 9.80156L30.7992 12.6016" stroke="white" stroke-width="2.8" stroke-linecap="round" stroke-linejoin="round"/>
<path d="M30.8008 43.3984L28.0008 46.1984L25.2008 43.3984" stroke="white" stroke-width="2.8" stroke-linecap="round" stroke-linejoin="round"/>
<path d="M38.5 28C38.5 33.799 33.799 38.5 28 38.5C22.201 38.5 17.5 33.799 17.5 28C17.5 22.201 22.201 17.5 28 17.5C33.799 17.5 38.5 22.201 38.5 28Z" fill="white"/>
<path d="M23.8008 28.0008L22.8108 27.0108C22.5483 27.2734 22.4008 27.6295 22.4008 28.0008C22.4008 28.3721 22.5483 28.7282 22.8108 28.9907L23.8008 28.0008ZM28.0008 23.8008L28.9907 22.8108C28.7282 22.5483 28.3721 22.4008 28.0008 22.4008C27.6295 22.4008 27.2734 22.5483 27.0108 22.8108L28.0008 23.8008ZM32.2008 28.0008L33.1907 28.9907C33.7375 28.444 33.7375 27.5576 33.1907 27.0108L32.2008 28.0008ZM28.0008 32.2008L27.0108 33.1907C27.5576 33.7375 28.444 33.7375 28.9907 33.1907L28.0008 32.2008ZM24.7907 28.9907L28.9907 24.7907L27.0108 22.8108L22.8108 27.0108L24.7907 28.9907ZM27.0108 24.7907L31.2108 28.9907L33.1907 27.0108L28.9907 22.8108L27.0108 24.7907ZM31.2108 27.0108L27.0108 31.2108L28.9907 33.1907L33.1907 28.9907L31.2108 27.0108ZM28.9907 31.2108L24.7907 27.0108L22.8108 28.9907L27.0108 33.1907L28.9907 31.2108Z" fill="#545E8B"/>
</svg>
